<svg width="68" height="52" viewBox="0 0 68 52" fill="none" xmlns="http://www.w3.org/2000/svg">
<path d="M7.52658 17.2335C5.2853 22.1134 5.06819 27.5956 6.91532 32.6706C8.76245 37.7455 12.4527 41.8056 17.3063 44.103C20.9082 45.808 24.8308 46.3894 28.6649 45.8302C23.2746 44.9643 18.4751 41.247 16.462 35.716C13.547 27.7073 17.551 18.8565 25.3947 15.862C25.4694 15.8327 25.5447 15.8042 25.6206 15.7766C30.4751 14.0096 35.8788 16.5674 37.6662 21.4782C39.4536 26.3889 36.9581 31.8217 32.1035 33.5887C31.507 33.8058 30.9023 33.9572 30.2969 34.0475C32.5268 34.6299 34.9414 34.5674 37.2573 33.7245C43.294 31.5273 46.4397 24.8383 44.3722 18.7139C42.492 13.7721 38.851 9.82004 34.0886 7.56591C29.235 5.26849 23.7991 5.00883 18.7822 6.83485C13.7652 8.66087 9.76802 12.3539 7.52658 17.2335Z" fill="black"/>
<path d="M59.7234 34.0477C61.9647 29.1679 62.1818 23.6856 60.3347 18.6107C58.4876 13.5357 54.7973 9.47562 49.9437 7.17828C46.3418 5.4733 42.4192 4.89182 38.5851 5.45103C43.9754 6.31696 48.7749 10.0343 50.788 15.5653C53.703 23.574 49.699 32.4247 41.8553 35.4192C41.7806 35.4486 41.7053 35.4771 41.6294 35.5047C36.7749 37.2716 31.3712 34.7139 29.5838 29.8031C27.7964 24.8923 30.2919 19.4595 35.1465 17.6926C35.743 17.4755 36.3477 17.324 36.9531 17.2338C34.7232 16.6513 32.3086 16.7139 29.9927 17.5568C23.956 19.754 20.8103 26.4429 22.8778 32.5673C24.758 37.5092 28.399 41.4612 33.1614 43.7153C38.015 46.0128 43.4509 46.2724 48.4678 44.4464C53.4848 42.6204 57.482 38.9273 59.7234 34.0477Z" fill="black"/>
</svg>
